<?xml version="1.0" encoding="UTF-8"?>
<svg id="Capa_2" data-name="Capa 2" xmlns="http://www.w3.org/2000/svg" xmlns:xlink="http://www.w3.org/1999/xlink" viewBox="0 0 71.27 84.01">
  <defs>
    <style>
      .cls-1 {
        fill: #f2f2f2;
      }

      .cls-1, .cls-2, .cls-3, .cls-4, .cls-5 {
        stroke-width: 0px;
      }

      .cls-2 {
        fill: #6a0002;
      }

      .cls-3 {
        fill: #fff;
      }

      .cls-4 {
        fill: url(#Degradado_sin_nombre_32);
      }

      .cls-5 {
        fill: #d40005;
      }
    </style>
    <linearGradient id="Degradado_sin_nombre_32" data-name="Degradado sin nombre 32" x1="35.64" y1="84.01" x2="35.64" y2="0" gradientUnits="userSpaceOnUse">
      <stop offset="0" stop-color="#f2f2f2"/>
      <stop offset=".35" stop-color="gray"/>
      <stop offset=".49" stop-color="#fff"/>
      <stop offset=".75" stop-color="#999"/>
      <stop offset=".79" stop-color="#a6a6a6"/>
      <stop offset=".88" stop-color="#c9c9c9"/>
      <stop offset=".98" stop-color="#fff"/>
    </linearGradient>
  </defs>
  <g id="Capa_1-2" data-name="Capa 1">
    <g>
      <g>
        <path class="cls-1" d="M3.03,18.23v15.95c0,9.85,1.78,18.47,5.28,25.63,2.76,5.63,6.6,10.39,11.41,14.15,7.04,5.49,14.02,7.19,15.91,7.57,1.9-.39,9.1-2.17,16.17-7.76,4.75-3.77,8.54-8.52,11.26-14.14,3.44-7.12,5.19-15.68,5.19-25.44v-15.95L35.64,3.05,3.03,18.23Z"/>
        <path class="cls-1" d="M68.24,18.23v2.84l-30.86-14.37L6.36,21.14v15.17c0,9.37,1.69,17.57,5.02,24.38,2.62,5.36,6.27,9.89,10.86,13.46,6.15,4.8,12.26,6.55,14.61,7.09-.51.13-.92.22-1.21.28-1.89-.38-8.88-2.09-15.91-7.57-4.82-3.75-8.65-8.51-11.41-14.15-3.5-7.15-5.28-15.78-5.28-25.63v-15.95L35.64,3.05l32.61,15.18Z"/>
        <path class="cls-1" d="M35.64,84.01l-.44-.07c-.37-.05-9.04-1.4-17.72-8.17-5.1-3.97-9.16-9-12.07-14.95C1.82,53.5,0,44.79,0,34.92v-18.33L35.64,0l35.64,16.59v18.33c0,9.86-1.82,18.58-5.4,25.91-2.91,5.94-6.97,10.97-12.07,14.95-8.68,6.77-17.36,8.11-17.72,8.17l-.44.07ZM4.62,19.4v15.17c0,9.37,1.69,17.57,5.02,24.38,2.62,5.36,6.27,9.89,10.85,13.46,6.69,5.22,13.34,6.84,15.14,7.2,1.81-.37,8.66-2.06,15.38-7.38,4.52-3.58,8.13-8.11,10.71-13.45,3.27-6.77,4.93-14.91,4.93-24.2v-15.17l-31.02-14.44L4.62,19.4Z"/>
        <path class="cls-1" d="M52.83,42.62c0,.27,0,.55-.02.82-.36,7.6-5.64,13.9-12.73,15.8-1.42.38-2.91.58-4.44.58-9.5,0-17.19-7.7-17.19-17.19s7.7-17.19,17.19-17.19,17.19,7.7,17.19,17.19Z"/>
        <path class="cls-1" d="M52.52,45.86c.06-.55.09-1.11.09-1.67,0-4.11-1.6-7.98-4.51-10.89-2.91-2.91-6.78-4.51-10.89-4.51s-7.98,1.6-10.89,4.51-4.51,6.78-4.51,10.89,1.6,7.98,4.51,10.89,6.78,4.51,10.89,4.51c.56,0,1.12-.03,1.66-.09-1.05.2-2.13.3-3.24.3-9.5,0-17.19-7.7-17.19-17.19,0-.67.04-1.32.11-1.97,0,0,0,0,0,0,.91-7.92,7.19-14.21,15.12-15.11.64-.07,1.3-.11,1.96-.11,9.5,0,17.19,7.7,17.19,17.19,0,1.11-.11,2.2-.31,3.25Z"/>
        <path class="cls-1" d="M35.64,61.6c-5.07,0-9.84-1.97-13.42-5.56-3.59-3.59-5.56-8.35-5.56-13.42s1.97-9.84,5.56-13.42c3.59-3.59,8.35-5.56,13.42-5.56s9.84,1.97,13.42,5.56c3.59,3.59,5.56,8.35,5.56,13.42s-1.97,9.84-5.56,13.42c-3.59,3.59-8.35,5.56-13.42,5.56ZM35.64,27.22c-4.11,0-7.98,1.6-10.89,4.51s-4.51,6.78-4.51,10.89,1.6,7.98,4.51,10.89,6.78,4.51,10.89,4.51,7.98-1.6,10.89-4.51c2.91-2.91,4.51-6.78,4.51-10.89s-1.6-7.98-4.51-10.89c-2.91-2.91-6.78-4.51-10.89-4.51Z"/>
        <g>
          <g>
            <path class="cls-1" d="M38.71,52.73c.02,1.02-.8,1.85-1.82,1.87-1.1.02-1.89-.75-1.91-1.85-.02-1.01.81-1.88,1.81-1.9,1.03-.02,1.91.84,1.93,1.88Z"/>
            <path class="cls-1" d="M36.79,32.26c.47,0,.94,0,1.41,0,.95.02,1.35.38,1.26,1.32-.19,2.07-.42,4.14-.65,6.21-.28,2.54-.57,5.07-.85,7.61,0,.02,0,.05,0,.07-.09,1.11-.42,1.56-1.12,1.54-.64-.02-.86-.39-.98-1.48-.52-4.58-1.05-9.16-1.58-13.74-.13-1.08.22-1.51,1.33-1.53.4,0,.79,0,1.19,0,0,0,0,0,0-.01Z"/>
          </g>
          <g>
            <path class="cls-1" d="M36.11,31.87c.47,0,.94,0,1.41,0,.95.02,1.35.38,1.26,1.32-.19,2.07-.42,4.14-.65,6.21-.28,2.54-.57,5.07-.85,7.61,0,.02,0,.05,0,.07-.09,1.11-.42,1.56-1.12,1.54-.64-.02-.86-.39-.98-1.48-.52-4.58-1.05-9.16-1.58-13.74-.13-1.08.22-1.51,1.33-1.53.4,0,.79,0,1.19,0,0,0,0,0,0-.01Z"/>
            <path class="cls-1" d="M38.03,52.34c.02,1.02-.8,1.85-1.82,1.87-1.1.02-1.89-.75-1.91-1.85-.02-1.01.81-1.88,1.81-1.9,1.03-.02,1.91.84,1.93,1.88Z"/>
          </g>
        </g>
      </g>
      <g>
        <path class="cls-5" d="M3.03,18.23v15.95c0,9.85,1.78,18.47,5.28,25.63,2.76,5.63,6.6,10.39,11.41,14.15,7.04,5.49,14.02,7.19,15.91,7.57,1.9-.39,9.1-2.17,16.17-7.76,4.75-3.77,8.54-8.52,11.26-14.14,3.44-7.12,5.19-15.68,5.19-25.44v-15.95L35.64,3.05,3.03,18.23Z"/>
        <path class="cls-2" d="M68.24,18.23v2.84l-30.86-14.37L6.36,21.14v15.17c0,9.37,1.69,17.57,5.02,24.38,2.62,5.36,6.27,9.89,10.86,13.46,6.15,4.8,12.26,6.55,14.61,7.09-.51.13-.92.22-1.21.28-1.89-.38-8.88-2.09-15.91-7.57-4.82-3.75-8.65-8.51-11.41-14.15-3.5-7.15-5.28-15.78-5.28-25.63v-15.95L35.64,3.05l32.61,15.18Z"/>
        <path class="cls-4" d="M35.64,84.01l-.44-.07c-.37-.05-9.04-1.4-17.72-8.17-5.1-3.97-9.16-9-12.07-14.95C1.82,53.5,0,44.79,0,34.92v-18.33L35.64,0l35.64,16.59v18.33c0,9.86-1.82,18.58-5.4,25.91-2.91,5.94-6.97,10.97-12.07,14.95-8.68,6.77-17.36,8.11-17.72,8.17l-.44.07ZM4.62,19.4v15.17c0,9.37,1.69,17.57,5.02,24.38,2.62,5.36,6.27,9.89,10.85,13.46,6.69,5.22,13.34,6.84,15.14,7.2,1.81-.37,8.66-2.06,15.38-7.38,4.52-3.58,8.13-8.11,10.71-13.45,3.27-6.77,4.93-14.91,4.93-24.2v-15.17l-31.02-14.44L4.62,19.4Z"/>
        <path class="cls-5" d="M52.83,42.62c0,.27,0,.55-.02.82-.36,7.6-5.64,13.9-12.73,15.8-1.42.38-2.91.58-4.44.58-9.5,0-17.19-7.7-17.19-17.19s7.7-17.19,17.19-17.19,17.19,7.7,17.19,17.19Z"/>
        <path class="cls-2" d="M52.52,45.86c.06-.55.09-1.11.09-1.67,0-4.11-1.6-7.98-4.51-10.89-2.91-2.91-6.78-4.51-10.89-4.51s-7.98,1.6-10.89,4.51-4.51,6.78-4.51,10.89,1.6,7.98,4.51,10.89,6.78,4.51,10.89,4.51c.56,0,1.12-.03,1.66-.09-1.05.2-2.13.3-3.24.3-9.5,0-17.19-7.7-17.19-17.19,0-.67.04-1.32.11-1.97,0,0,0,0,0,0,.91-7.92,7.19-14.21,15.12-15.11.64-.07,1.3-.11,1.96-.11,9.5,0,17.19,7.7,17.19,17.19,0,1.11-.11,2.2-.31,3.25Z"/>
        <path class="cls-3" d="M35.64,61.6c-5.07,0-9.84-1.97-13.42-5.56-3.59-3.59-5.56-8.35-5.56-13.42s1.97-9.84,5.56-13.42c3.59-3.59,8.35-5.56,13.42-5.56s9.84,1.97,13.42,5.56c3.59,3.59,5.56,8.35,5.56,13.42s-1.97,9.84-5.56,13.42c-3.59,3.59-8.35,5.56-13.42,5.56ZM35.64,27.22c-4.11,0-7.98,1.6-10.89,4.51s-4.51,6.78-4.51,10.89,1.6,7.98,4.51,10.89,6.78,4.51,10.89,4.51,7.98-1.6,10.89-4.51c2.91-2.91,4.51-6.78,4.51-10.89s-1.6-7.98-4.51-10.89c-2.91-2.91-6.78-4.51-10.89-4.51Z"/>
        <g>
          <g>
            <path class="cls-2" d="M38.71,52.73c.02,1.02-.8,1.85-1.82,1.87-1.1.02-1.89-.75-1.91-1.85-.02-1.01.81-1.88,1.81-1.9,1.03-.02,1.91.84,1.93,1.88Z"/>
            <path class="cls-2" d="M36.79,32.26c.47,0,.94,0,1.41,0,.95.02,1.35.38,1.26,1.32-.19,2.07-.42,4.14-.65,6.21-.28,2.54-.57,5.07-.85,7.61,0,.02,0,.05,0,.07-.09,1.11-.42,1.56-1.12,1.54-.64-.02-.86-.39-.98-1.48-.52-4.58-1.05-9.16-1.58-13.74-.13-1.08.22-1.51,1.33-1.53.4,0,.79,0,1.19,0,0,0,0,0,0-.01Z"/>
          </g>
          <g>
            <path class="cls-3" d="M36.11,31.87c.47,0,.94,0,1.41,0,.95.02,1.35.38,1.26,1.32-.19,2.07-.42,4.14-.65,6.21-.28,2.54-.57,5.07-.85,7.61,0,.02,0,.05,0,.07-.09,1.11-.42,1.56-1.12,1.54-.64-.02-.86-.39-.98-1.48-.52-4.58-1.05-9.16-1.58-13.74-.13-1.08.22-1.51,1.33-1.53.4,0,.79,0,1.19,0,0,0,0,0,0-.01Z"/>
            <path class="cls-3" d="M38.03,52.34c.02,1.02-.8,1.85-1.82,1.87-1.1.02-1.89-.75-1.91-1.85-.02-1.01.81-1.88,1.81-1.9,1.03-.02,1.91.84,1.93,1.88Z"/>
          </g>
        </g>
      </g>
    </g>
  </g>
</svg>