<?xml version="1.0" encoding="UTF-8"?>
<svg id="Capa_2" data-name="Capa 2" xmlns="http://www.w3.org/2000/svg" viewBox="0 0 219.24 181.74">
  <defs>
    <style>
      .cls-1 {
        fill: none;
      }
    </style>
  </defs>
  <g id="Capa_1-2" data-name="Capa 1">
    <g>
      <path class="cls-1" d="M73.77,1.23c-2.51-1.77-6.55-1.9-7.56,1.46-.84,2.78,4.17,26.59,5.72,29.84,2.01,4.23,6,2.82,6.99-1.01l-5.14-30.29ZM31.77,9.12c-4.49,1.21-3.99,5.18-1.72,8.34,6.73,9.36,19.91,17.46,27.42,26.52l4.62.52c1.58-1.14,1.25-4.74-.02-6.12l-24.52-27.42c-1.62-1.39-3.62-2.42-5.79-1.83ZM211.9,61.9c5.38-9.87,6.62-22.65-5.08-28.36-13.37-6.54-20.78,3.39-32.88,6.41-.47,2.61.4,1.54,1.42,2.08,6.16,3.2,13.31,4.76,19.07,8.88.85-.07,4.72-13.09,12.5-8.48,3.02,1.79,3.29,13.39-2,13.51v1.47s6.97,4.5,6.97,4.5ZM180.93,51.91c-.11-1.5-1.56-1.51-2.49-2-4.87-2.55-10.72-4.92-15.82-7.15-30.17-13.19-41.89-16.34-69.1,5.19-30.16,23.86-57.95,52.66-88.4,76.44l-1.06,2.42,49.25,21.85,101.94-87.95c8.24-4.05,16.05-8.97,25.68-8.8ZM51.89,58.77c1.72-2.74-.55-5.15-2.85-6.37-2.93-1.54-21.97-7.82-24.96-8.06-.97-.08-1.84-.29-2.74.29-4.4,2.77-2.63,6.91,1.71,8.78,3.32,1.43,21.19,5.97,24.75,6.27.98.08,3.73-.32,4.1-.91ZM64.03,179.75c19.35-12.89,35.57-31.97,56.57-41.91,9.3-.7,10.12,11.65,15.4,18.41,25.44,32.63,65.25,2.93,77.4-26.46,19.16-46.32-10.91-94.48-59.35-60.32l-96.11,83.79c-.94.81-.61,1.54-.52,2.52.6,6.95,6.09,16.52,6.62,23.96ZM58.02,181.74l-8.01-26.44L.07,131.81c-.87,1.16,6.36,24.75,9.04,27.41l48.91,22.52ZM129.96,159.78l-7.62-14.9c-3.07-1.04-8.19,3.33-10.35,5.43-.45,2.02.79,1.39,2,1.93,5.39,2.42,10.8,4.69,15.97,7.55Z"/>
      <path d="M64.03,179.75c-.54-7.44-6.03-17.01-6.62-23.96-.08-.98-.42-1.71.52-2.52l96.11-83.79c48.44-34.17,78.51,14,59.35,60.32-12.16,29.39-51.96,59.09-77.4,26.46-5.27-6.76-6.1-19.11-15.4-18.41-20.99,9.93-37.21,29.02-56.57,41.91ZM174.68,77.12c-25.41,4.31-43.6,52.56-21.63,70.08,18.09,14.43,40.97-5.84,47.64-23.12,8.33-21.61,3.41-51.95-26-46.96Z"/>
      <path d="M180.93,51.91c-9.62-.16-17.43,4.75-25.68,8.8l-101.94,87.95L4.06,126.81l1.06-2.42c30.45-23.78,58.24-52.57,88.4-76.44,27.21-21.53,38.94-18.39,69.1-5.19,5.11,2.23,10.95,4.61,15.82,7.15.93.49,2.38.49,2.49,2ZM132.97,69.91l-36.49-15.71-23.46,20.68,36.34,15.79,23.61-20.76Z"/>
      <path d="M58.02,181.74l-48.91-22.52c-2.67-2.66-9.91-26.26-9.04-27.41l49.93,23.49,8.01,26.44ZM49.02,171.76c-1.21-3.95-1.84-10.75-5.02-13.45l-34.94-16.5,4.01,13.46,35.95,16.5Z"/>
      <path d="M211.9,61.9l-6.98-4.5v-1.47c5.3-.12,5.03-11.72,2.01-13.51-7.78-4.62-11.65,8.4-12.5,8.48-5.76-4.12-12.91-5.68-19.07-8.88-1.03-.53-1.89.53-1.42-2.08,12.1-3.02,19.51-12.94,32.88-6.41,11.7,5.72,10.46,18.49,5.08,28.36Z"/>
      <path d="M31.77,9.12c2.17-.58,4.17.44,5.79,1.83l24.52,27.42c1.27,1.39,1.59,4.98.02,6.12l-4.62-.52c-7.51-9.06-20.69-17.15-27.42-26.52-2.27-3.16-2.77-7.13,1.72-8.34Z"/>
      <path d="M73.77,1.23l5.14,30.29c-.98,3.83-4.97,5.24-6.99,1.01-1.54-3.24-6.56-27.05-5.72-29.84,1.01-3.36,5.05-3.24,7.56-1.46Z"/>
      <path d="M51.89,58.77c-.37.59-3.12.99-4.1.91-3.56-.3-21.43-4.84-24.75-6.27-4.34-1.87-6.11-6.01-1.71-8.78.9-.58,1.77-.37,2.74-.29,2.99.24,22.03,6.52,24.96,8.06,2.3,1.21,4.58,3.62,2.85,6.37Z"/>
      <path d="M129.96,159.78c-5.16-2.86-10.58-5.13-15.97-7.55-1.21-.54-2.45.09-2-1.93,2.16-2.1,7.28-6.47,10.35-5.43l7.62,14.9Z"/>
      <path class="cls-1" d="M174.68,77.12c29.42-4.99,34.34,25.36,26,46.96-6.66,17.28-29.54,37.55-47.64,23.12-21.97-17.52-3.78-65.77,21.63-70.08ZM176.67,83.12c-23.2,3.58-39.19,46.45-18.06,59.52,24.5,15.15,53.84-34.98,33.71-54.66-4.5-4.4-9.44-5.81-15.65-4.86Z"/>
      <path d="M176.67,83.12c6.2-.96,11.14.45,15.65,4.86,20.13,19.68-9.2,69.81-33.71,54.66-21.13-13.07-5.14-55.94,18.06-59.52Z"/>
    </g>
  </g>
</svg>