<svg width="176" height="146" viewBox="0 0 176 146" fill="none" xmlns="http://www.w3.org/2000/svg">
<path d="M118.29 103.065L87.9571 72.7314M87.9571 72.7314L57.6238 103.065M87.9571 72.7314L87.9571 140.981M151.581 121.189C158.978 117.157 164.82 110.776 168.188 103.054C171.555 95.3325 172.255 86.7092 170.177 78.5454C168.099 70.3817 163.362 63.1423 156.713 57.97C150.063 52.7977 141.881 49.9869 133.457 49.9814H123.902C121.607 41.1031 117.329 32.8607 111.389 25.8739C105.45 18.8871 98.0038 13.3376 89.611 9.64264C81.2182 5.94771 72.0969 4.2035 62.933 4.54114C53.769 4.87878 44.8009 7.28947 36.7027 11.592C28.6045 15.8945 21.5871 21.9769 16.178 29.3819C10.7689 36.7868 7.10883 45.3217 5.47303 54.3448C3.83722 63.3679 4.26823 72.6444 6.73363 81.4769C9.19903 90.3095 13.6347 98.4682 19.7071 105.34" stroke="#1E1E1E" stroke-width="9" stroke-linecap="round" stroke-linejoin="round"/>
</svg>
