<?xml version="1.0" encoding="UTF-8"?>
<svg id="Capa_2" data-name="Capa 2" xmlns="http://www.w3.org/2000/svg" viewBox="0 0 501.33 400.46">
  <defs>
    <style>
      .cls-1 {
        fill: #f7ee38;
      }

      .cls-1, .cls-2, .cls-3, .cls-4, .cls-5, .cls-6, .cls-7, .cls-8, .cls-9, .cls-10, .cls-11, .cls-12, .cls-13 {
        stroke-width: 0px;
      }

      .cls-2 {
        fill: #e6e338;
      }

      .cls-3 {
        fill: #f8ee38;
      }

      .cls-4 {
        fill: #f2eb38;
      }

      .cls-5 {
        fill: #f7ed38;
      }

      .cls-6 {
        fill: #f9ef38;
      }

      .cls-7 {
        fill: #08563a;
      }

      .cls-8 {
        fill: #dede38;
      }

      .cls-9 {
        fill: #f4ec38;
      }

      .cls-10 {
        fill: #f5ed38;
      }

      .cls-11 {
        fill: #f8ef38;
      }

      .cls-12 {
        fill: #c92228;
      }

      .cls-13 {
        fill: #e7e438;
      }
    </style>
  </defs>
  <g id="Capa_1-2" data-name="Capa 1">
    <g>
      <path class="cls-12" d="M255.22,0c57.67.8,115.36,16.35,166.01,53.71,35.33,26.06,61.79,59.09,73.6,101.98,15.76,57.23,2.34,108.61-34.7,153.97-31.92,39.1-73.63,63.93-121.69,77.66-80.58,23.01-158.6,16.35-232.54-24.29-38.46-21.14-69.59-50.47-88.4-90.66C-11.83,209.71-3.72,150.32,37.53,95.67,68.52,54.6,110.87,29.41,159.35,13.92,189.02,4.44,219.53.25,255.22,0Z"/>
      <path class="cls-6" d="M272.14,385.47c-14.48,1.59-28.97.82-43.46.37-1.97-1.43-2.22-3.6-2.45-5.76-5.42-50.54-10.87-101.08-16.26-151.62-1.71-16.02-3.39-32.05-5.21-48.06-.81-7.14.8-9.07,7.89-9.33,3.32-.12,6.65-.06,9.97-.05,3.16,0,4.47-1.5,4.43-4.6-.03-2.9-1.33-4.31-4.22-4.26-.66.01-1.33-.04-1.99-.04-36.73,0-73.45-.01-110.18,0-3.06,0-6.23-.18-6.14,4.39.05,2.78,1.06,4.41,4.05,4.47,2.82.06,5.65-.03,8.47.09,6.36.28,7.73,1.55,7.34,7.82-.68,10.78-2.26,21.47-3.4,32.21-3.45,32.38-7.01,64.74-10.54,97.11-1.1,10.07-2.11,20.15-3.24,30.22-.27,2.4-.27,5.05-2.56,6.75-44.55-28.95-76.03-67.42-85.12-120.98-7.39-43.54,3.99-83.11,30.05-118.34,29.9-40.42,70.71-65.16,118.07-79.93,32.21-10.04,65.31-13.81,98.91-11.81,57.78,3.43,110.4,21.13,155.04,59.03,30.08,25.54,51.38,56.98,59.37,96.15,9.38,45.98-1.49,87.65-28.89,125.22-15.15,20.78-33.97,37.73-55.88,51.21-2.38-.9-2.23-3.08-2.44-5.01-3.43-30.86-6.72-61.75-10.07-92.62-2.45-22.62-5.04-45.23-7.33-67.86-.74-7.3.65-9.01,7.89-9.18,2.66-.06,5.32-.1,7.97.02,3.19.15,4.5-1.27,4.48-4.43-.01-3.16-1.43-4.57-4.52-4.5-.99.03-1.99-.03-2.99-.03-36.55,0-73.1-.02-109.65.01-5.62,0-6.55.87-6.4,5.1.09,2.64,1.17,3.98,3.94,3.89,4.32-.15,8.64-.22,12.96,0,5.01.25,6.31,1.46,5.96,6.44-.77,11.1-2.13,22.15-3.35,33.21-3.63,32.85-7.02,65.72-10.64,98.57-2.58,23.44-4.86,46.91-7.7,70.32-.25,2.04.07,4.43-2.14,5.81Z"/>
      <path class="cls-7" d="M272.14,385.47c3.45-31.55,6.92-63.09,10.34-94.64,3.99-36.84,7.98-73.67,11.89-110.52.93-8.82,1.35-7.15-6.32-7.3-3.16-.06-6.33.18-9.47-.08-2.18-.18-5.55,1.53-6.31-1.03-.95-3.21-.62-6.96-.1-10.36.31-2.02,2.82-1.15,4.36-1.16,13.63-.06,27.25-.04,40.88-.04,25.09,0,50.19.1,75.28-.1,4.15-.03,5.82,1.08,5.2,5.25-.22,1.46-.13,2.99-.02,4.48.18,2.43-.9,3.15-3.25,3.07-4.31-.16-8.65.14-12.96-.11-3.51-.21-4.66.93-4.25,4.51,2.54,22.28,4.92,44.57,7.35,66.86,3.19,29.22,6.36,58.44,9.57,87.66.51,4.6,1.21,9.18,1.83,13.77-1.2,4.55-9.09,9.33-12.48,7.57-2.91-4.93-1.01-10.8-3.55-16.89-13.23,11.98-27.04,22.82-39.14,35.61-2.28,3.81-7.71,5.55-10.58,3.39-2.07-5.62-6.98-8.63-11.24-12.24-8.95-7.6-18.12-14.92-27.67-22.84-1.46,7.39-1.88,14.27-2.65,21.08-.75,6.58-1.65,13.15-2.13,19.76-.09,1.2-.44,2.27-1.28,3.15-2.7,3.64-11.15,4.36-13.3,1.14Z"/>
      <path class="cls-7" d="M104.63,345.19c2.65-23.43,5.36-46.84,7.92-70.28,3.54-32.35,6.86-64.73,10.54-97.06.5-4.36-.87-5.21-4.63-4.89-2.47.21-4.98.04-7.47.04-8.37,0-8.21,0-8.26-8.54-.02-3.26.94-4.21,4.2-4.18,17.44.15,34.89.07,52.34.07,21.43,0,42.87.12,64.3-.1,4.26-.04,5.7,1.31,5.12,5.35-.19,1.3-.13,2.66-.02,3.98.22,2.62-.96,3.51-3.5,3.45-4.98-.12-9.98.16-14.95-.09-3.78-.19-4.79.99-4.36,4.85,3.75,33.51,7.3,67.05,10.9,100.58,3.66,34.03,7.32,68.06,11,102.08.2,1.81.6,3.59.91,5.39-3.36,2.65-10.98,1.71-13.46-1.66-2.88-5.18-1.89-11.02-2.68-16.54-1.05-7.37-1.96-14.78-2.39-22.24-.08-1.38.17-3.33-1.5-3.9-1.35-.45-2.33,1.03-3.31,1.85-10.06,8.39-20.22,16.66-30.34,24.98-2.27,1.86-3.56,4.32-4.86,6.82-3.26,2.23-8.88.25-10.56-3.71-7.1-7.44-15.23-13.74-22.77-20.7-4.63-4.27-9.41-8.38-14.13-12.56-2.2-1.95-3.18-1.28-3.39,1.32-.38,4.6-.1,9.3-2.32,13.58-3.84,1.1-11.25-3.64-12.33-7.89Z"/>
      <path class="cls-11" d="M285.44,384.34c1.46-15.18,2.93-30.35,4.39-45.49,2.48-.5,3.4,1.2,4.56,2.15,11.19,9.16,22.25,18.47,33.51,27.55,2.44,1.96,3.23,4.02,2.52,6.88-14.76,4.15-29.68,7.48-44.97,8.92Z"/>
      <path class="cls-3" d="M170.14,375.16c-.71-2.48-.1-4.39,1.99-6.1,11.79-9.64,23.5-19.38,35.26-29.06,1.37-1.13,3.03-3.06,3.42.74,1.47,14.48,2.94,28.96,4.41,43.44-15.36-1.33-30.26-4.99-45.08-9.02Z"/>
      <path class="cls-3" d="M340.99,372.03c-.7-1.74.33-2.81,1.48-3.83,12.61-11.19,25.22-22.38,37.84-33.56.21-.18.61-.15,1.64-.37.58,6.4,1.16,12.71,1.74,19.03-13.63,7.61-27.85,13.9-42.7,18.73Z"/>
      <path class="cls-3" d="M116.96,353.08c.56-6.24,1.12-12.48,1.67-18.63,2.09-.26,2.79,1.09,3.72,1.92,11.42,10.1,22.82,20.21,34.17,30.38,1.38,1.24,3.58,2.12,3.05,4.68-13.81-4.12-26.81-10.14-39.51-16.87-1.01-.54-2.07-.99-3.1-1.49Z"/>
      <path class="cls-7" d="M164.9,145.59c-1.07-4.11-2.13-8.22-3.22-12.32-4.03-15.13-12.88-26.76-25.87-35.3-11.19-7.36-22.77-8.4-34.82-2.01-2.65,1.4-5.66,4.15-8.61,1.45-2.93-2.69-1.14-6.29-.02-9.34,2.4-6.52,6.45-11.96,11.77-16.4,10.46-8.74,21.73-9.24,32.9-1.42,8.68,6.08,14.51,14.46,18.71,24.05,7.12,16.24,9.34,33.44,9.16,51.3Z"/>
      <path class="cls-7" d="M341.25,145.5c-.29-17.87,2.03-35.24,9.3-51.64,4.25-9.59,10.18-17.93,18.97-23.91,10.77-7.34,21.57-6.97,31.75,1.17,6.66,5.32,11.4,12.04,13.53,20.41.55,2.17.65,4.41-1.13,6.06-1.78,1.65-3.91.81-5.6-.14-9.22-5.16-18.77-7.81-29.11-3.82-12.08,4.67-21.09,13.11-27.9,23.9-4.39,6.95-6.66,14.82-8.51,22.79-.4,1.73-.86,3.45-1.29,5.18Z"/>
      <path class="cls-7" d="M331.13,147.67c-1.87-8.62-3.51-15.71-6.26-22.51-5.14-12.72-14.12-22.02-25.74-28.83-10.22-5.98-20.8-6.21-31.39-.69-1.03.54-2.03,1.17-3.11,1.58-1.97.76-4.01,2.07-6.08.36-1.97-1.64-1.71-4-1.14-6.02,3.41-12.09,10.69-21.06,22.58-25.43,11.08-4.08,20.05.84,28.07,8.13,5.23,4.76,9.08,10.56,12.22,16.85,7.34,14.71,12.07,38.56,10.86,56.56Z"/>
      <path class="cls-7" d="M174.91,146.4c-.05-21.01,2.87-41.36,13.48-59.95,4.01-7.02,9.31-12.93,16.21-17.28,9.58-6.04,19.18-5.99,28.48.43,7.91,5.46,13.47,12.77,15.68,22.3.44,1.92.59,4.03-1.12,5.59-1.84,1.67-3.86.92-5.57-.03-9.21-5.12-18.76-7.85-29.09-3.86-12.24,4.73-21.41,13.23-28.15,24.29-5.33,8.74-7.55,18.66-9.9,28.51Z"/>
      <path class="cls-6" d="M330.28,354c-12.69-10.47-24.83-20.45-36.93-30.49-2.34-1.95-1.96-4.14.22-5.89,12-9.65,24.05-19.23,36.71-29.32v65.71Z"/>
      <path class="cls-11" d="M340.68,351.76c0-20.46,0-40.55.02-60.64,0-.93-.41-2.18.71-2.67,1.05-.46,1.81.53,2.56,1.13,11.17,8.91,22.32,17.85,33.53,26.71,1.74,1.37,1.94,2.37.22,3.88-11.85,10.42-23.66,20.89-35.5,31.33-.2.18-.61.11-1.53.26Z"/>
      <path class="cls-11" d="M340.68,262.33c0-18.4.02-36.31-.03-54.22,0-2.62.88-2.91,2.87-1.54,8.22,5.63,16.54,11.12,24.64,16.92,4.06,2.9,3.82,15.03-.08,18.14-7.65,6.12-15.31,12.23-22.98,18.32-1.13.9-2.11,2.1-4.43,2.37Z"/>
      <path class="cls-6" d="M329.78,261.76c-9.18-7.33-18.33-14.63-27.49-21.93-1.35-1.07-1.24-2.44-1.29-4.01-.28-9.86,2.87-17.45,12.49-21.85,4.31-1.97,7.96-5.37,12-7.97,3.33-2.15,5.1-1.37,5.12,2.38.07,17.41,0,34.83-.04,52.24,0,.25-.33.5-.79,1.13Z"/>
      <path class="cls-5" d="M294.26,300.51c.6-6.42,1.02-11.29,1.53-16.16.92-8.74,1.96-17.47,2.82-26.22.27-2.74.55-4.4,3.59-1.91,6.15,5.05,12.43,9.95,18.65,14.93,2.75,2.21,2.95,5.42.7,7.35-8.5,7.27-17.38,14.09-27.28,22Z"/>
      <path class="cls-6" d="M373.15,254.13c1.7,15.58,3.3,30.15,4.94,45.23-3.41-1.08-5.35-3.39-7.61-5.16-7.03-5.52-14-11.12-20.99-16.71-1.24-1-3.19-1.97-.95-3.77,7.95-6.38,15.94-12.7,24.61-19.6Z"/>
      <path class="cls-3" d="M368.58,212.16c-7.52-5.06-13.87-9.22-20.1-13.57-2.62-1.83-2.82-6.21-.34-8.02,4.68-3.41,9.56-6.56,14.34-9.84,1.59-1.09,2.64-1.28,2.89,1.16.98,9.67,2.04,19.34,3.21,30.27Z"/>
      <path class="cls-10" d="M303.96,209.18c.99-9.33,1.84-17.06,2.62-24.79.2-1.99,1.09-2.25,2.59-1.24,4.13,2.79,8.38,5.42,12.27,8.5,2.1,1.67,2.04,4.24-.3,5.9-5.23,3.71-10.61,7.21-17.18,11.63Z"/>
      <path class="cls-9" d="M312.17,173.03c5.55,0,11.1-.02,16.65.01,1.57,0,1.83,1.13,1.83,2.4,0,1.66.08,3.32-.02,4.98-.08,1.4.59,3.13-1.12,4.02-1.65.85-2.82-.42-4.02-1.23-4.52-3.02-9.02-6.08-13.53-9.12.07-.35.14-.7.21-1.06Z"/>
      <path class="cls-8" d="M356.21,174.09c-4.33,2.92-8.64,5.86-12.98,8.75-1.84,1.22-2.69.6-2.64-1.54.03-1.64.1-3.3-.02-4.93-.19-2.51.78-3.6,3.38-3.51,3.9.13,7.81.03,11.72.03.18.4.37.8.55,1.2Z"/>
      <path class="cls-6" d="M169.86,354.43c0-22.07,0-42.44,0-62.82,0-2.58.94-2.97,2.9-1.41,11.41,9.1,22.82,18.2,34.21,27.32,1.98,1.58,2.68,3.82.64,5.54-12.12,10.22-24.37,20.28-37.74,31.36Z"/>
      <path class="cls-6" d="M159.51,287.32v64.07c-1.37.59-1.93-.5-2.61-1.1-10.94-9.67-21.87-19.36-32.75-29.1-1.44-1.29-4.06-2.48-.99-4.92,11.82-9.36,23.59-18.79,36.35-28.96Z"/>
      <path class="cls-11" d="M170.84,261.71c-1.46-1.93-.97-3.46-.97-4.87-.04-15.77-.05-31.54,0-47.31,0-1.73-.8-4,1.21-4.98,1.96-.96,3.33,1.02,4.77,1.98,6.35,4.24,12.57,8.67,18.98,12.83,2.49,1.62,3.04,3.76,3.81,6.46,2.78,9.81-.82,16.1-9.15,21.31-6.63,4.15-12.42,9.64-18.65,14.59Z"/>
      <path class="cls-6" d="M159.8,263.39c-10.47-8.37-19.77-15.84-29.11-23.25-2.61-2.07-.79-4.63-.94-6.96-.38-6.01,2.08-10.11,7.49-13.22,6.75-3.87,12.95-8.68,19.41-13.06,1.35-.92,3.13-2.43,3.13.93.04,18.04.02,36.07.02,55.55Z"/>
      <path class="cls-1" d="M205.17,299.58c-7.61-6.07-15.32-12.23-23.04-18.38-7.52-5.98-8.51-5.37.11-12.04,5.51-4.27,10.9-8.7,16.35-13.04,1.33-1.06,2.86-2.57,3.19.73,1.42,14.01,2.83,28.02,4.23,42.03,0,.09-.23.2-.83.69Z"/>
      <path class="cls-11" d="M122.43,300.35c1.73-16,3.3-30.54,5-46.29,5.59,4.46,10.42,8.31,15.24,12.16,2.98,2.38,5.95,4.78,8.96,7.13,1.46,1.15,1.87,2.25.21,3.57-9.42,7.49-18.83,14.99-29.41,23.42Z"/>
      <path class="cls-1" d="M135.62,179.01c6.14,4.2,11.54,7.73,16.76,11.52,2.49,1.81,2.29,6.28-.33,8.12-6.23,4.36-12.6,8.53-20,13.5,1.24-11.54,2.36-21.91,3.57-33.14Z"/>
      <path class="cls-4" d="M196.68,209.18c-7.08-4.76-12.99-8.72-18.9-12.68-1.79-1.2-2.18-2.53-.23-3.88,4.5-3.13,9.06-6.18,13.58-9.28,1.82-1.25,2.7-.68,2.92,1.39.83,7.74,1.67,15.48,2.63,24.46Z"/>
      <path class="cls-2" d="M188.69,174.13c-5.3,3.55-10.59,7.12-15.92,10.64-.49.32-1.57.6-1.78.36-2.4-2.67-.77-5.94-1.17-8.93-.2-1.52-.02-3.18,2.07-3.21,5.51-.07,11.01-.02,16.52-.02.09.39.19.77.28,1.16Z"/>
      <path class="cls-13" d="M144.74,172.96c4.22,0,8.44,0,12.65,0,1.55,0,2.53.7,2.44,2.37-.14,2.59.72,5.33-.52,7.72-.48.93-1.77-.13-2.56-.66-4.09-2.72-8.15-5.47-12.23-8.21.07-.41.14-.81.21-1.22Z"/>
    </g>
  </g>
</svg>